<mxfile host="app.diagrams.net" agent="Mozilla/5.0 (Windows NT 10.0; Win64; x64) AppleWebKit/537.36 (KHTML, like Gecko) Chrome/128.0.0.0 Safari/537.36" version="24.7.12">
  <diagram name="第 1 页" id="Zdd4O_8U9urGJ2uWjXP6">
    <mxGraphModel dx="2266" dy="818" grid="1" gridSize="10" guides="1" tooltips="1" connect="1" arrows="1" fold="1" page="1" pageScale="1" pageWidth="827" pageHeight="1169" math="0" shadow="0">
      <root>
        <mxCell id="0" />
        <mxCell id="1" parent="0" />
        <mxCell id="4AtZvL3RW2-XeUfKdOJ_-1" value="" style="rounded=0;whiteSpace=wrap;html=1;fillColor=#eeeeee;strokeColor=#36393d;" parent="1" vertex="1">
          <mxGeometry x="160" y="190" width="620" height="60" as="geometry" />
        </mxCell>
        <mxCell id="4AtZvL3RW2-XeUfKdOJ_-2" value="&lt;b&gt;&lt;font style=&quot;font-size: 14px;&quot;&gt;研究目标&lt;/font&gt;&lt;/b&gt;" style="text;html=1;align=center;verticalAlign=middle;whiteSpace=wrap;rounded=0;" parent="1" vertex="1">
          <mxGeometry x="440" y="190" width="60" height="30" as="geometry" />
        </mxCell>
        <mxCell id="4AtZvL3RW2-XeUfKdOJ_-3" value="&lt;span style=&quot;font-size: 14px;&quot;&gt;&lt;b&gt;&lt;font color=&quot;#1e12cb&quot;&gt;应用算法及演示验证&lt;/font&gt;&lt;/b&gt;&lt;/span&gt;" style="text;html=1;align=center;verticalAlign=middle;whiteSpace=wrap;rounded=0;" parent="1" vertex="1">
          <mxGeometry x="265" y="220" width="410" height="30" as="geometry" />
        </mxCell>
        <mxCell id="4AtZvL3RW2-XeUfKdOJ_-4" value="" style="rounded=0;whiteSpace=wrap;html=1;fillColor=#FFCCCC;strokeColor=#36393d;opacity=50;" parent="1" vertex="1">
          <mxGeometry x="160" y="290" width="620" height="120" as="geometry" />
        </mxCell>
        <mxCell id="4AtZvL3RW2-XeUfKdOJ_-7" value="&lt;span style=&quot;font-size: 14px;&quot;&gt;&lt;b&gt;研究内容&lt;/b&gt;&lt;/span&gt;" style="text;html=1;align=center;verticalAlign=middle;whiteSpace=wrap;rounded=0;" parent="1" vertex="1">
          <mxGeometry x="440" y="290" width="60" height="30" as="geometry" />
        </mxCell>
        <mxCell id="4AtZvL3RW2-XeUfKdOJ_-83" style="edgeStyle=orthogonalEdgeStyle;rounded=0;orthogonalLoop=1;jettySize=auto;html=1;entryX=0.5;entryY=0;entryDx=0;entryDy=0;dashed=1;strokeColor=#CC0000;" parent="1" source="4AtZvL3RW2-XeUfKdOJ_-10" target="4AtZvL3RW2-XeUfKdOJ_-20" edge="1">
          <mxGeometry relative="1" as="geometry" />
        </mxCell>
        <mxCell id="4AtZvL3RW2-XeUfKdOJ_-10" value="" style="rounded=0;whiteSpace=wrap;html=1;dashed=1;fillColor=#ffcccc;strokeColor=#36393d;" parent="1" vertex="1">
          <mxGeometry x="300" y="330" width="100" height="60" as="geometry" />
        </mxCell>
        <mxCell id="4AtZvL3RW2-XeUfKdOJ_-13" value="量子噪声模型技术" style="text;html=1;align=center;verticalAlign=middle;whiteSpace=wrap;rounded=0;" parent="1" vertex="1">
          <mxGeometry x="310" y="345" width="80" height="30" as="geometry" />
        </mxCell>
        <mxCell id="4AtZvL3RW2-XeUfKdOJ_-16" value="" style="html=1;shadow=0;dashed=0;align=center;verticalAlign=middle;shape=mxgraph.arrows2.arrow;dy=0.49;dx=15.66;direction=south;notch=0;fillColor=#FFE4E3;strokeColor=#36393d;" parent="1" vertex="1">
          <mxGeometry x="444" y="418" width="60" height="26" as="geometry" />
        </mxCell>
        <mxCell id="4AtZvL3RW2-XeUfKdOJ_-17" value="" style="rounded=0;whiteSpace=wrap;html=1;opacity=50;fillColor=#f9f7ed;strokeColor=#36393d;" parent="1" vertex="1">
          <mxGeometry x="160" y="450" width="620" height="160" as="geometry" />
        </mxCell>
        <mxCell id="4AtZvL3RW2-XeUfKdOJ_-19" value="&lt;span style=&quot;font-size: 14px;&quot;&gt;&lt;b&gt;关键技术问题&lt;/b&gt;&lt;/span&gt;" style="text;html=1;align=center;verticalAlign=middle;whiteSpace=wrap;rounded=0;" parent="1" vertex="1">
          <mxGeometry x="425" y="450" width="90" height="30" as="geometry" />
        </mxCell>
        <mxCell id="4AtZvL3RW2-XeUfKdOJ_-88" style="edgeStyle=orthogonalEdgeStyle;rounded=0;orthogonalLoop=1;jettySize=auto;html=1;exitX=0.5;exitY=1;exitDx=0;exitDy=0;strokeColor=#3399FF;" parent="1" source="4AtZvL3RW2-XeUfKdOJ_-20" target="4AtZvL3RW2-XeUfKdOJ_-35" edge="1">
          <mxGeometry relative="1" as="geometry" />
        </mxCell>
        <mxCell id="4AtZvL3RW2-XeUfKdOJ_-20" value="" style="rounded=0;whiteSpace=wrap;html=1;fillColor=#fff2cc;strokeColor=#d6b656;dashed=1;" parent="1" vertex="1">
          <mxGeometry x="300" y="490" width="100" height="100" as="geometry" />
        </mxCell>
        <mxCell id="4AtZvL3RW2-XeUfKdOJ_-24" value="" style="rounded=0;whiteSpace=wrap;html=1;opacity=50;fillColor=#eeeeee;strokeColor=#36393d;" parent="1" vertex="1">
          <mxGeometry x="160" y="650" width="620" height="140" as="geometry" />
        </mxCell>
        <mxCell id="4AtZvL3RW2-XeUfKdOJ_-25" value="&lt;span style=&quot;font-size: 14px;&quot;&gt;&lt;b&gt;子任务分解&lt;/b&gt;&lt;/span&gt;" style="text;html=1;align=center;verticalAlign=middle;whiteSpace=wrap;rounded=0;" parent="1" vertex="1">
          <mxGeometry x="425" y="650" width="90" height="30" as="geometry" />
        </mxCell>
        <mxCell id="4AtZvL3RW2-XeUfKdOJ_-26" value="" style="html=1;shadow=0;dashed=0;align=center;verticalAlign=middle;shape=mxgraph.arrows2.arrow;dy=0.49;dx=15.66;direction=south;notch=0;fillColor=#FFE4E3;strokeColor=#36393d;" parent="1" vertex="1">
          <mxGeometry x="444" y="258" width="60" height="26" as="geometry" />
        </mxCell>
        <mxCell id="4AtZvL3RW2-XeUfKdOJ_-27" value="" style="html=1;shadow=0;dashed=0;align=center;verticalAlign=middle;shape=mxgraph.arrows2.arrow;dy=0.49;dx=15.66;direction=south;notch=0;fillColor=#fff2cc;strokeColor=#d6b656;" parent="1" vertex="1">
          <mxGeometry x="444" y="619" width="60" height="26" as="geometry" />
        </mxCell>
        <mxCell id="4AtZvL3RW2-XeUfKdOJ_-28" value="" style="rounded=0;whiteSpace=wrap;html=1;fillColor=#cce5ff;strokeColor=#36393d;dashed=1;" parent="1" vertex="1">
          <mxGeometry x="315" y="690" width="310" height="80" as="geometry" />
        </mxCell>
        <mxCell id="4AtZvL3RW2-XeUfKdOJ_-29" value="" style="rounded=0;whiteSpace=wrap;html=1;fillColor=#cce5ff;strokeColor=#36393d;dashed=1;" parent="1" vertex="1">
          <mxGeometry x="664.75" y="690" width="100" height="80" as="geometry" />
        </mxCell>
        <mxCell id="4AtZvL3RW2-XeUfKdOJ_-30" value="" style="rounded=0;whiteSpace=wrap;html=1;fillColor=#cce5ff;strokeColor=#36393d;dashed=1;" parent="1" vertex="1">
          <mxGeometry x="175" y="690" width="100" height="80" as="geometry" />
        </mxCell>
        <mxCell id="4AtZvL3RW2-XeUfKdOJ_-35" value="&lt;span style=&quot;font-size: 14px;&quot;&gt;&lt;b&gt;&lt;font color=&quot;#1e12cb&quot;&gt;子任务二&lt;/font&gt;&lt;/b&gt;&lt;/span&gt;" style="text;html=1;align=center;verticalAlign=middle;whiteSpace=wrap;rounded=0;" parent="1" vertex="1">
          <mxGeometry x="405" y="690" width="130" height="30" as="geometry" />
        </mxCell>
        <mxCell id="4AtZvL3RW2-XeUfKdOJ_-36" value="&lt;span style=&quot;font-size: 14px;&quot;&gt;&lt;b&gt;&lt;font color=&quot;#1e12cb&quot;&gt;子任务三&lt;/font&gt;&lt;/b&gt;&lt;/span&gt;" style="text;html=1;align=center;verticalAlign=middle;whiteSpace=wrap;rounded=0;" parent="1" vertex="1">
          <mxGeometry x="651.25" y="690" width="123.5" height="30" as="geometry" />
        </mxCell>
        <mxCell id="4AtZvL3RW2-XeUfKdOJ_-37" value="&lt;span style=&quot;font-size: 14px;&quot;&gt;&lt;b&gt;&lt;font color=&quot;#1e12cb&quot;&gt;子任务一&lt;/font&gt;&lt;/b&gt;&lt;/span&gt;" style="text;html=1;align=center;verticalAlign=middle;whiteSpace=wrap;rounded=0;" parent="1" vertex="1">
          <mxGeometry x="160" y="690" width="130" height="30" as="geometry" />
        </mxCell>
        <mxCell id="4AtZvL3RW2-XeUfKdOJ_-38" value="" style="rounded=1;whiteSpace=wrap;html=1;arcSize=8;" parent="1" vertex="1">
          <mxGeometry x="160" y="860" width="620" height="480" as="geometry" />
        </mxCell>
        <mxCell id="4AtZvL3RW2-XeUfKdOJ_-39" value="&lt;span style=&quot;font-size: 16px;&quot;&gt;&lt;b style=&quot;font-size: 16px;&quot;&gt;课题五：应用算法及演示验证研究&lt;/b&gt;&lt;/span&gt;" style="text;html=1;align=center;verticalAlign=middle;whiteSpace=wrap;rounded=0;fontSize=16;" parent="1" vertex="1">
          <mxGeometry x="344.5" y="890" width="251" height="30" as="geometry" />
        </mxCell>
        <mxCell id="4AtZvL3RW2-XeUfKdOJ_-106" style="edgeStyle=orthogonalEdgeStyle;rounded=0;orthogonalLoop=1;jettySize=auto;html=1;" parent="1" source="4AtZvL3RW2-XeUfKdOJ_-42" target="4AtZvL3RW2-XeUfKdOJ_-47" edge="1">
          <mxGeometry relative="1" as="geometry" />
        </mxCell>
        <mxCell id="4AtZvL3RW2-XeUfKdOJ_-108" style="edgeStyle=orthogonalEdgeStyle;rounded=0;orthogonalLoop=1;jettySize=auto;html=1;" parent="1" source="4AtZvL3RW2-XeUfKdOJ_-42" target="4AtZvL3RW2-XeUfKdOJ_-46" edge="1">
          <mxGeometry relative="1" as="geometry" />
        </mxCell>
        <mxCell id="4AtZvL3RW2-XeUfKdOJ_-42" value="" style="rounded=0;whiteSpace=wrap;html=1;dashed=1;" parent="1" vertex="1">
          <mxGeometry x="262.25" y="940" width="423.5" height="140" as="geometry" />
        </mxCell>
        <mxCell id="4AtZvL3RW2-XeUfKdOJ_-43" value="" style="rounded=0;whiteSpace=wrap;html=1;dashed=1;" parent="1" vertex="1">
          <mxGeometry x="205" y="1130" width="230" height="170" as="geometry" />
        </mxCell>
        <mxCell id="4AtZvL3RW2-XeUfKdOJ_-44" value="" style="rounded=0;whiteSpace=wrap;html=1;dashed=1;" parent="1" vertex="1">
          <mxGeometry x="515" y="1130" width="220" height="170" as="geometry" />
        </mxCell>
        <mxCell id="4AtZvL3RW2-XeUfKdOJ_-45" value="&lt;span style=&quot;font-size: 14px;&quot;&gt;&lt;b&gt;&lt;font color=&quot;#1e12cb&quot;&gt;子任务一&lt;/font&gt;&lt;/b&gt;&lt;/span&gt;" style="text;html=1;align=center;verticalAlign=middle;whiteSpace=wrap;rounded=0;" parent="1" vertex="1">
          <mxGeometry x="407.25" y="940" width="130" height="30" as="geometry" />
        </mxCell>
        <mxCell id="4AtZvL3RW2-XeUfKdOJ_-46" value="&lt;span style=&quot;font-size: 14px;&quot;&gt;&lt;b&gt;&lt;font color=&quot;#1e12cb&quot;&gt;子任务三&lt;/font&gt;&lt;/b&gt;&lt;/span&gt;" style="text;html=1;align=center;verticalAlign=middle;whiteSpace=wrap;rounded=0;" parent="1" vertex="1">
          <mxGeometry x="560" y="1130" width="130" height="30" as="geometry" />
        </mxCell>
        <mxCell id="4AtZvL3RW2-XeUfKdOJ_-47" value="&lt;span style=&quot;font-size: 14px;&quot;&gt;&lt;b&gt;&lt;font color=&quot;#1e12cb&quot;&gt;子任务二&lt;/font&gt;&lt;/b&gt;&lt;/span&gt;" style="text;html=1;align=center;verticalAlign=middle;whiteSpace=wrap;rounded=0;" parent="1" vertex="1">
          <mxGeometry x="255" y="1130" width="130" height="30" as="geometry" />
        </mxCell>
        <mxCell id="4AtZvL3RW2-XeUfKdOJ_-48" value="经典算法可量子化分析技术" style="rounded=0;whiteSpace=wrap;html=1;fillColor=#dae8fc;strokeColor=#6c8ebf;" parent="1" vertex="1">
          <mxGeometry x="339" y="990" width="270" height="30" as="geometry" />
        </mxCell>
        <mxCell id="4AtZvL3RW2-XeUfKdOJ_-49" value="可量子化分析验证技术" style="rounded=0;whiteSpace=wrap;html=1;fillColor=#dae8fc;strokeColor=#6c8ebf;" parent="1" vertex="1">
          <mxGeometry x="225" y="1180" width="180" height="30" as="geometry" />
        </mxCell>
        <mxCell id="4AtZvL3RW2-XeUfKdOJ_-50" value="量子模拟并行优化" style="rounded=0;whiteSpace=wrap;html=1;fillColor=#dae8fc;strokeColor=#6c8ebf;" parent="1" vertex="1">
          <mxGeometry x="225" y="1220" width="180" height="30" as="geometry" />
        </mxCell>
        <mxCell id="4AtZvL3RW2-XeUfKdOJ_-51" value="&lt;span style=&quot;font-weight: normal;&quot;&gt;量子模拟云网络虚拟化优化&lt;/span&gt;" style="rounded=0;whiteSpace=wrap;html=1;fontStyle=1;fillColor=#dae8fc;strokeColor=#6c8ebf;" parent="1" vertex="1">
          <mxGeometry x="225" y="1260" width="180" height="30" as="geometry" />
        </mxCell>
        <mxCell id="4AtZvL3RW2-XeUfKdOJ_-55" value="“经典+量子”混合算法研究" style="text;html=1;align=center;verticalAlign=middle;whiteSpace=wrap;rounded=0;" parent="1" vertex="1">
          <mxGeometry x="389" y="960" width="170" height="30" as="geometry" />
        </mxCell>
        <mxCell id="4AtZvL3RW2-XeUfKdOJ_-56" value="基于超算的量子计算模拟技术研究" style="text;html=1;align=center;verticalAlign=middle;whiteSpace=wrap;rounded=0;" parent="1" vertex="1">
          <mxGeometry x="224" y="1150" width="190" height="30" as="geometry" />
        </mxCell>
        <mxCell id="4AtZvL3RW2-XeUfKdOJ_-57" value="量子经典融合应用演示验证" style="text;html=1;align=center;verticalAlign=middle;whiteSpace=wrap;rounded=0;" parent="1" vertex="1">
          <mxGeometry x="529" y="1150" width="190" height="30" as="geometry" />
        </mxCell>
        <mxCell id="4AtZvL3RW2-XeUfKdOJ_-63" value="如何设计并实现适合量子算法研究的量子噪声模型" style="text;html=1;align=center;verticalAlign=middle;whiteSpace=wrap;rounded=0;" parent="1" vertex="1">
          <mxGeometry x="310" y="507.5" width="80" height="65" as="geometry" />
        </mxCell>
        <mxCell id="4AtZvL3RW2-XeUfKdOJ_-84" style="edgeStyle=orthogonalEdgeStyle;rounded=0;orthogonalLoop=1;jettySize=auto;html=1;exitX=0.5;exitY=1;exitDx=0;exitDy=0;entryX=0.5;entryY=0;entryDx=0;entryDy=0;dashed=1;strokeColor=#CC0000;" parent="1" source="4AtZvL3RW2-XeUfKdOJ_-64" target="4AtZvL3RW2-XeUfKdOJ_-66" edge="1">
          <mxGeometry relative="1" as="geometry" />
        </mxCell>
        <mxCell id="4AtZvL3RW2-XeUfKdOJ_-64" value="" style="rounded=0;whiteSpace=wrap;html=1;dashed=1;fillColor=#ffcccc;strokeColor=#36393d;" parent="1" vertex="1">
          <mxGeometry x="420" y="330" width="100" height="60" as="geometry" />
        </mxCell>
        <mxCell id="4AtZvL3RW2-XeUfKdOJ_-65" value="量子模拟并行技术" style="text;html=1;align=center;verticalAlign=middle;whiteSpace=wrap;rounded=0;" parent="1" vertex="1">
          <mxGeometry x="430" y="345" width="80" height="30" as="geometry" />
        </mxCell>
        <mxCell id="4AtZvL3RW2-XeUfKdOJ_-89" style="edgeStyle=orthogonalEdgeStyle;rounded=0;orthogonalLoop=1;jettySize=auto;html=1;entryX=0.5;entryY=0;entryDx=0;entryDy=0;strokeColor=#3399FF;" parent="1" source="4AtZvL3RW2-XeUfKdOJ_-66" target="4AtZvL3RW2-XeUfKdOJ_-35" edge="1">
          <mxGeometry relative="1" as="geometry" />
        </mxCell>
        <mxCell id="4AtZvL3RW2-XeUfKdOJ_-66" value="" style="rounded=0;whiteSpace=wrap;html=1;fillColor=#fff2cc;strokeColor=#d6b656;dashed=1;" parent="1" vertex="1">
          <mxGeometry x="420" y="490" width="100" height="100" as="geometry" />
        </mxCell>
        <mxCell id="4AtZvL3RW2-XeUfKdOJ_-67" value="如何结合各种量子应用的特点进行大规模并行技术" style="text;html=1;align=center;verticalAlign=middle;whiteSpace=wrap;rounded=0;" parent="1" vertex="1">
          <mxGeometry x="430" y="507.5" width="80" height="65" as="geometry" />
        </mxCell>
        <mxCell id="4AtZvL3RW2-XeUfKdOJ_-85" style="edgeStyle=orthogonalEdgeStyle;rounded=0;orthogonalLoop=1;jettySize=auto;html=1;exitX=0.5;exitY=1;exitDx=0;exitDy=0;entryX=0.5;entryY=0;entryDx=0;entryDy=0;dashed=1;strokeColor=#CC0000;" parent="1" source="4AtZvL3RW2-XeUfKdOJ_-68" target="4AtZvL3RW2-XeUfKdOJ_-70" edge="1">
          <mxGeometry relative="1" as="geometry" />
        </mxCell>
        <mxCell id="4AtZvL3RW2-XeUfKdOJ_-68" value="" style="rounded=0;whiteSpace=wrap;html=1;dashed=1;fillColor=#ffcccc;strokeColor=#36393d;" parent="1" vertex="1">
          <mxGeometry x="540" y="330" width="100" height="60" as="geometry" />
        </mxCell>
        <mxCell id="4AtZvL3RW2-XeUfKdOJ_-69" value="量子模拟的虚拟网络技术" style="text;html=1;align=center;verticalAlign=middle;whiteSpace=wrap;rounded=0;" parent="1" vertex="1">
          <mxGeometry x="550" y="345" width="80" height="30" as="geometry" />
        </mxCell>
        <mxCell id="4AtZvL3RW2-XeUfKdOJ_-90" style="edgeStyle=orthogonalEdgeStyle;rounded=0;orthogonalLoop=1;jettySize=auto;html=1;exitX=0.5;exitY=1;exitDx=0;exitDy=0;strokeColor=#3399FF;" parent="1" source="4AtZvL3RW2-XeUfKdOJ_-70" edge="1">
          <mxGeometry relative="1" as="geometry">
            <mxPoint x="470" y="690" as="targetPoint" />
          </mxGeometry>
        </mxCell>
        <mxCell id="4AtZvL3RW2-XeUfKdOJ_-70" value="" style="rounded=0;whiteSpace=wrap;html=1;fillColor=#fff2cc;strokeColor=#d6b656;dashed=1;" parent="1" vertex="1">
          <mxGeometry x="540" y="490" width="100" height="100" as="geometry" />
        </mxCell>
        <mxCell id="4AtZvL3RW2-XeUfKdOJ_-71" value="如何进行网络虚拟化和优化实现量子模拟的高速网络通信" style="text;html=1;align=center;verticalAlign=middle;whiteSpace=wrap;rounded=0;" parent="1" vertex="1">
          <mxGeometry x="545" y="507.5" width="90" height="65" as="geometry" />
        </mxCell>
        <mxCell id="4AtZvL3RW2-XeUfKdOJ_-87" style="edgeStyle=orthogonalEdgeStyle;rounded=0;orthogonalLoop=1;jettySize=auto;html=1;exitX=0.5;exitY=1;exitDx=0;exitDy=0;dashed=1;strokeColor=#CC0000;" parent="1" source="4AtZvL3RW2-XeUfKdOJ_-72" target="4AtZvL3RW2-XeUfKdOJ_-74" edge="1">
          <mxGeometry relative="1" as="geometry" />
        </mxCell>
        <mxCell id="4AtZvL3RW2-XeUfKdOJ_-72" value="" style="rounded=0;whiteSpace=wrap;html=1;dashed=1;fillColor=#ffcccc;strokeColor=#36393d;" parent="1" vertex="1">
          <mxGeometry x="175" y="330" width="100" height="60" as="geometry" />
        </mxCell>
        <mxCell id="4AtZvL3RW2-XeUfKdOJ_-73" value="“经典+量子”混合算法" style="text;html=1;align=center;verticalAlign=middle;whiteSpace=wrap;rounded=0;" parent="1" vertex="1">
          <mxGeometry x="185" y="345" width="80" height="30" as="geometry" />
        </mxCell>
        <mxCell id="4AtZvL3RW2-XeUfKdOJ_-113" style="edgeStyle=orthogonalEdgeStyle;rounded=0;orthogonalLoop=1;jettySize=auto;html=1;strokeColor=#3399FF;" parent="1" source="4AtZvL3RW2-XeUfKdOJ_-74" target="4AtZvL3RW2-XeUfKdOJ_-37" edge="1">
          <mxGeometry relative="1" as="geometry" />
        </mxCell>
        <mxCell id="4AtZvL3RW2-XeUfKdOJ_-74" value="" style="rounded=0;whiteSpace=wrap;html=1;fillColor=#fff2cc;strokeColor=#d6b656;dashed=1;" parent="1" vertex="1">
          <mxGeometry x="175" y="490" width="100" height="100" as="geometry" />
        </mxCell>
        <mxCell id="4AtZvL3RW2-XeUfKdOJ_-75" value="如何设计和实现与融合架构适配的混合算法" style="text;html=1;align=center;verticalAlign=middle;whiteSpace=wrap;rounded=0;" parent="1" vertex="1">
          <mxGeometry x="185" y="507.5" width="80" height="65" as="geometry" />
        </mxCell>
        <mxCell id="4AtZvL3RW2-XeUfKdOJ_-86" style="edgeStyle=orthogonalEdgeStyle;rounded=0;orthogonalLoop=1;jettySize=auto;html=1;exitX=0.5;exitY=1;exitDx=0;exitDy=0;entryX=0.5;entryY=0;entryDx=0;entryDy=0;dashed=1;strokeColor=#CC0000;" parent="1" source="4AtZvL3RW2-XeUfKdOJ_-76" target="4AtZvL3RW2-XeUfKdOJ_-78" edge="1">
          <mxGeometry relative="1" as="geometry" />
        </mxCell>
        <mxCell id="4AtZvL3RW2-XeUfKdOJ_-76" value="" style="rounded=0;whiteSpace=wrap;html=1;dashed=1;fillColor=#ffcccc;strokeColor=#36393d;" parent="1" vertex="1">
          <mxGeometry x="663" y="330" width="100" height="60" as="geometry" />
        </mxCell>
        <mxCell id="4AtZvL3RW2-XeUfKdOJ_-77" value="量子经典融合的行业应用" style="text;html=1;align=center;verticalAlign=middle;whiteSpace=wrap;rounded=0;" parent="1" vertex="1">
          <mxGeometry x="673" y="345" width="80" height="30" as="geometry" />
        </mxCell>
        <mxCell id="4AtZvL3RW2-XeUfKdOJ_-114" value="" style="edgeStyle=orthogonalEdgeStyle;rounded=0;orthogonalLoop=1;jettySize=auto;html=1;strokeColor=#3399FF;" parent="1" source="4AtZvL3RW2-XeUfKdOJ_-78" target="4AtZvL3RW2-XeUfKdOJ_-36" edge="1">
          <mxGeometry relative="1" as="geometry" />
        </mxCell>
        <mxCell id="4AtZvL3RW2-XeUfKdOJ_-78" value="" style="rounded=0;whiteSpace=wrap;html=1;fillColor=#fff2cc;strokeColor=#d6b656;dashed=1;" parent="1" vertex="1">
          <mxGeometry x="663" y="490" width="100" height="100" as="geometry" />
        </mxCell>
        <mxCell id="4AtZvL3RW2-XeUfKdOJ_-79" value="&lt;font size=&quot;1&quot; color=&quot;#cc0000&quot;&gt;&lt;b style=&quot;font-size: 23px;&quot;&gt;&amp;nbsp; ？&lt;/b&gt;&lt;/font&gt;" style="text;html=1;align=center;verticalAlign=middle;whiteSpace=wrap;rounded=0;" parent="1" vertex="1">
          <mxGeometry x="673" y="507.5" width="80" height="65" as="geometry" />
        </mxCell>
        <mxCell id="4AtZvL3RW2-XeUfKdOJ_-80" value="基于超算的量子计算模拟技术研究" style="text;html=1;align=center;verticalAlign=middle;whiteSpace=wrap;rounded=0;" parent="1" vertex="1">
          <mxGeometry x="370" y="720" width="190" height="30" as="geometry" />
        </mxCell>
        <mxCell id="4AtZvL3RW2-XeUfKdOJ_-81" value="量子经典融合应用演示验证" style="text;html=1;align=center;verticalAlign=middle;whiteSpace=wrap;rounded=0;" parent="1" vertex="1">
          <mxGeometry x="673.75" y="720" width="85" height="30" as="geometry" />
        </mxCell>
        <mxCell id="4AtZvL3RW2-XeUfKdOJ_-82" value="“经典+量子”混合算法研究" style="text;html=1;align=center;verticalAlign=middle;whiteSpace=wrap;rounded=0;" parent="1" vertex="1">
          <mxGeometry x="185" y="720" width="80" height="30" as="geometry" />
        </mxCell>
        <mxCell id="4AtZvL3RW2-XeUfKdOJ_-93" value="“经典+量子”混合算法技术" style="rounded=0;whiteSpace=wrap;html=1;fillColor=#dae8fc;strokeColor=#6c8ebf;" parent="1" vertex="1">
          <mxGeometry x="339" y="1030" width="270" height="30" as="geometry" />
        </mxCell>
        <mxCell id="4AtZvL3RW2-XeUfKdOJ_-100" value="混合行业应用" style="rounded=0;whiteSpace=wrap;html=1;fillColor=#dae8fc;strokeColor=#6c8ebf;" parent="1" vertex="1">
          <mxGeometry x="540" y="1220" width="180" height="30" as="geometry" />
        </mxCell>
        <mxCell id="4AtZvL3RW2-XeUfKdOJ_-109" value="&lt;font style=&quot;font-size: 10px;&quot;&gt;验证平台支撑&lt;/font&gt;" style="text;html=1;align=center;verticalAlign=middle;whiteSpace=wrap;rounded=0;" parent="1" vertex="1">
          <mxGeometry x="335" y="1080" width="85" height="30" as="geometry" />
        </mxCell>
        <mxCell id="4AtZvL3RW2-XeUfKdOJ_-110" value="&lt;font style=&quot;font-size: 10px;&quot;&gt;应用验证&lt;/font&gt;" style="text;html=1;align=center;verticalAlign=middle;whiteSpace=wrap;rounded=0;" parent="1" vertex="1">
          <mxGeometry x="539" y="1080" width="61" height="30" as="geometry" />
        </mxCell>
        <mxCell id="pJk7IlE4MaVoi0zIQu5Q-3" value="" style="endArrow=classic;html=1;rounded=0;fillColor=#dae8fc;strokeColor=#6c8ebf;" parent="1" edge="1">
          <mxGeometry width="50" height="50" relative="1" as="geometry">
            <mxPoint x="531.25" y="814.66" as="sourcePoint" />
            <mxPoint x="573.25" y="814.66" as="targetPoint" />
          </mxGeometry>
        </mxCell>
        <mxCell id="pJk7IlE4MaVoi0zIQu5Q-6" value="" style="endArrow=classic;html=1;rounded=0;fillColor=#dae8fc;strokeColor=#CC0000;dashed=1;" parent="1" edge="1">
          <mxGeometry width="50" height="50" relative="1" as="geometry">
            <mxPoint x="290" y="814.66" as="sourcePoint" />
            <mxPoint x="332" y="814.66" as="targetPoint" />
          </mxGeometry>
        </mxCell>
        <mxCell id="pJk7IlE4MaVoi0zIQu5Q-7" value="图例：" style="text;html=1;align=center;verticalAlign=middle;whiteSpace=wrap;rounded=0;" parent="1" vertex="1">
          <mxGeometry x="235" y="800" width="55" height="30" as="geometry" />
        </mxCell>
        <mxCell id="pJk7IlE4MaVoi0zIQu5Q-10" value="研究内容与关键技术问题间关系" style="text;html=1;align=center;verticalAlign=middle;whiteSpace=wrap;rounded=0;" parent="1" vertex="1">
          <mxGeometry x="335" y="800" width="175" height="30" as="geometry" />
        </mxCell>
        <mxCell id="pJk7IlE4MaVoi0zIQu5Q-11" value="关键技术间问题与子任务间关系" style="text;html=1;align=center;verticalAlign=middle;whiteSpace=wrap;rounded=0;" parent="1" vertex="1">
          <mxGeometry x="574" y="800" width="176" height="30" as="geometry" />
        </mxCell>
      </root>
    </mxGraphModel>
  </diagram>
</mxfile>
